<?xml version="1.0" encoding="UTF-8"?>
<svg version="1.1" xmlns="http://www.w3.org/2000/svg" width="2100" height="1500">
<path d="M0 0 C167.31 0 334.62 0 507 0 C507 167.31 507 334.62 507 507 C339.69 507 172.38 507 0 507 C0 339.69 0 172.38 0 0 Z " fill="#000000" transform="translate(797,497)"/>
<path d="M0 0 C57.09 0 114.18 0 173 0 C173 55.44 173 110.88 173 168 C115.91 168 58.82 168 0 168 C0 112.56 0 57.12 0 0 Z " fill="#F4F4F4" transform="translate(964,667)"/>
<path d="M0 0 C57.09 0 114.18 0 173 0 C173 46.53 173 93.06 173 141 C115.91 141 58.82 141 0 141 C0 94.47 0 47.94 0 0 Z " fill="#F4F4F4" transform="translate(964,497)"/>
<path d="M0 0 C57.09 0 114.18 0 173 0 C173 46.2 173 92.4 173 140 C115.91 140 58.82 140 0 140 C0 93.8 0 47.6 0 0 Z " fill="#F4F4F4" transform="translate(964,864)"/>
<path d="M0 0 C45.54 0 91.08 0 138 0 C138 55.44 138 110.88 138 168 C92.46 168 46.92 168 0 168 C0 112.56 0 57.12 0 0 Z " fill="#F4F4F4" transform="translate(1166,667)"/>
<path d="M0 0 C45.54 0 91.08 0 138 0 C138 55.44 138 110.88 138 168 C92.46 168 46.92 168 0 168 C0 112.56 0 57.12 0 0 Z " fill="#F4F4F4" transform="translate(797,667)"/>
<path d="M0 0 C45.54 0 91.08 0 138 0 C138 46.53 138 93.06 138 141 C92.46 141 46.92 141 0 141 C0 94.47 0 47.94 0 0 Z " fill="#F4F4F4" transform="translate(1166,497)"/>
<path d="M0 0 C45.54 0 91.08 0 138 0 C138 46.53 138 93.06 138 141 C92.46 141 46.92 141 0 141 C0 94.47 0 47.94 0 0 Z " fill="#F4F4F4" transform="translate(797,497)"/>
<path d="M0 0 C45.54 0 91.08 0 138 0 C138 46.2 138 92.4 138 140 C92.46 140 46.92 140 0 140 C0 93.8 0 47.6 0 0 Z " fill="#F4F4F4" transform="translate(1166,864)"/>
<path d="M0 0 C45.54 0 91.08 0 138 0 C138 46.2 138 92.4 138 140 C92.46 140 46.92 140 0 140 C0 93.8 0 47.6 0 0 Z " fill="#F4F4F4" transform="translate(797,864)"/>
</svg>
